<svg width="173" height="387" viewBox="0 0 173 387" fill="none" xmlns="http://www.w3.org/2000/svg">
<rect x="24" y="117" width="128" height="16" fill="#1E881C"/>
<rect x="139" y="132" width="13" height="192" fill="#1E881C"/>
<rect x="24" y="114" width="128" height="2" fill="#1E881C" fill-opacity="0.43"/>
<path d="M87 33L152 113H24L87 33Z" fill="#1E881C" fill-opacity="0.4"/>
<path d="M5.5 58L152 113H24.5L5.5 58Z" fill="#1E881C" fill-opacity="0.4"/>
<path d="M170.5 58L24 113H152L170.5 58Z" fill="#1E881C" fill-opacity="0.4"/>
<path fill-rule="evenodd" clip-rule="evenodd" d="M24 319.367V322.867C24 357.937 52.9299 386.367 88 386.367C123.07 386.367 152 357.937 152 322.867V319.367H139V322.554C139 350.721 116.167 373.554 88 373.554C59.8335 373.554 37 350.721 37 322.554V319.367H24ZM152 297.01V262.867C152 258.811 151.613 254.844 150.875 251L152 297.01Z" fill="#1E881C"/>
<path d="M98.8515 309.392L98.7691 290.862L102.985 290.844L103.091 314.557L63.9896 314.731L63.9666 309.548L98.8515 309.392ZM88.1713 287.123C85.3247 287.136 82.762 286.592 80.4833 285.492C78.2046 284.374 76.4431 282.824 75.1989 280.843C73.9547 278.843 73.3269 276.563 73.3155 274.003C73.2979 270.046 74.6533 266.844 77.3817 264.397C80.11 261.932 83.7479 260.69 88.2954 260.669L88.6445 260.668C91.4733 260.655 94.018 261.19 96.2787 262.272C98.5214 263.336 100.274 264.877 101.536 266.895C102.798 268.894 103.435 271.201 103.447 273.815C103.464 277.754 102.109 280.956 99.3806 283.421C96.6521 285.868 93.0321 287.101 88.5204 287.121L88.1713 287.123ZM88.7399 282.125C91.9625 282.111 94.5463 281.356 96.4912 279.862C98.436 278.349 99.4028 276.34 99.3916 273.833C99.3804 271.309 98.3868 269.308 96.4108 267.831C94.4169 266.354 91.6386 265.623 88.0758 265.639C84.889 265.653 82.3143 266.425 80.3516 267.956C78.371 269.469 77.3863 271.478 77.3975 273.985C77.4084 276.437 78.3929 278.411 80.3511 279.907C82.3092 281.402 85.1055 282.141 88.7399 282.125ZM66.6999 247.794L73.7359 247.763L73.7118 242.338L77.5521 242.321L77.5762 247.746L95.5961 247.666C96.7598 247.66 97.636 247.415 98.2246 246.929C98.7954 246.443 99.0782 245.618 99.073 244.454C99.0705 243.881 98.9596 243.094 98.7403 242.093L102.769 242.075C103.132 243.38 103.317 244.65 103.323 245.886C103.332 248.106 102.669 249.783 101.331 250.917C99.993 252.05 98.0888 252.623 95.6182 252.634L77.5983 252.714L77.6218 258.004L73.7815 258.022L73.758 252.731L66.722 252.762L66.6999 247.794ZM77.1818 231.527C74.4686 229.337 73.1042 226.478 73.0885 222.951C73.0612 216.81 76.5117 213.697 83.4401 213.613L102.642 213.528L102.664 218.496L83.4354 218.581C81.3408 218.608 79.7943 219.099 78.7959 220.052C77.7974 220.988 77.3026 222.449 77.3115 224.436C77.3186 226.047 77.7546 227.46 78.6194 228.674C79.4841 229.887 80.6163 230.831 82.0158 231.505L102.721 231.413L102.743 236.381L61.4936 236.565L61.4715 231.596L77.1818 231.527ZM102.585 200.691L102.607 205.659L73.5493 205.788L73.5272 200.82L102.585 200.691ZM65.8437 206.225C65.038 206.229 64.3566 205.99 63.7994 205.509C63.2422 205.01 62.9614 204.278 62.9571 203.311C62.9528 202.344 63.2271 201.609 63.7799 201.105C64.3326 200.601 65.0118 200.348 65.8175 200.344C66.6232 200.34 67.2957 200.588 67.835 201.087C68.3743 201.586 68.6461 202.319 68.6504 203.285C68.6547 204.252 68.3894 204.988 67.8546 205.491C67.3196 205.977 66.6493 206.222 65.8437 206.225ZM73.4709 188.144L77.1225 187.967C74.3196 185.759 72.9103 182.865 72.8944 179.284C72.8671 173.144 76.3176 170.031 83.246 169.946L102.447 169.861L102.47 174.829L83.2412 174.915C81.1466 174.942 79.6001 175.432 78.6017 176.386C77.6033 177.321 77.1085 178.782 77.1173 180.77C77.1245 182.381 77.5604 183.793 78.4252 185.007C79.29 186.221 80.4221 187.164 81.8216 187.839L102.527 187.747L102.549 192.715L73.4918 192.844L73.4709 188.144ZM87.6491 163.616C83.1195 163.636 79.5162 162.604 76.8393 160.522C74.1445 158.439 72.7894 155.67 72.774 152.214C72.7582 148.67 73.9992 145.898 76.4968 143.899L73.2731 143.672L73.253 139.134L101.612 139.007C105.372 138.991 108.34 140.097 110.516 142.325C112.692 144.535 113.789 147.52 113.805 151.28C113.815 153.375 113.376 155.427 112.49 157.436C111.604 159.445 110.384 160.981 108.831 162.044L105.839 159.48C108.461 157.337 109.766 154.727 109.752 151.647C109.741 149.23 109.052 147.353 107.686 146.017C106.319 144.662 104.4 143.99 101.93 144.001L99.4321 144.012C101.733 145.989 102.89 148.697 102.906 152.134C102.921 155.536 101.564 158.299 98.8337 160.424C96.1038 162.531 92.3756 163.595 87.6491 163.616ZM88.1908 158.618C91.4671 158.604 94.0423 157.921 95.9162 156.57C97.7721 155.219 98.6948 153.335 98.684 150.918C98.6701 147.784 97.2365 145.49 94.3834 144.035L81.1169 144.094C78.3486 145.628 76.9712 147.917 76.9848 150.96C76.9955 153.377 77.9439 155.262 79.8298 156.614C81.7157 157.967 84.5027 158.634 88.1908 158.618Z" fill="#9ECC9E"/>
<ellipse cx="88.5" cy="2.5" rx="3.5" ry="2.5" fill="#1E881C"/>
<ellipse cx="170.5" cy="35" rx="2.5" ry="2" fill="#1E881C"/>
<ellipse cx="2.5" cy="35" rx="2.5" ry="2" fill="#1E881C"/>
</svg>
